<?xml version="1.0" encoding="utf-8"?>
<!-- Generator: Adobe Illustrator 24.3.0, SVG Export Plug-In . SVG Version: 6.00 Build 0)  -->
<svg version="1.1" id="Слой_1" xmlns="http://www.w3.org/2000/svg" xmlns:xlink="http://www.w3.org/1999/xlink" x="0px" y="0px"
	 viewBox="0 0 120 104" style="enable-background:new 0 0 120 104;" xml:space="preserve">
<style type="text/css">
	.st0{fill:#FFF1DA;}
	.st1{fill:#D5D6DB;}
	.st2{fill:#029BC5;}
	.st3{fill:#E1E6E9;}
	.st4{fill:#3A556A;}
</style>
<path class="st0" d="M30.8,56c0,9.9,8.1,18,18,18h27c2.8,0,5-2.2,5-5V35c0-5.5-4.5-10-10-10h-35c-2.8,0-5,2.2-5,5V56z"/>
<path class="st1" d="M79.4,69.9c-1.4,0.3-2.7,0.9-3.9,1.7c-3.1,2-5,4.9-4.1,6.4c0.9,1.5,4.2,1.1,7.3-0.9c1.2-0.8,2.3-1.7,3.2-2.9
	c0.4-0.5,0.5-1.2,0.2-1.7l-1.2-2C80.6,70,80,69.8,79.4,69.9z"/>
<path class="st1" d="M71.5,42.9c-1,0.2-1.9,0.6-2.8,1.2c-2.3,1.5-3.6,3.5-3,4.6c0.6,1.1,3,0.8,5.3-0.6c0.9-0.6,1.7-1.3,2.3-2.1
	c0.3-0.4,0.3-0.9,0.1-1.2l-0.8-1.4C72.4,43,72,42.9,71.5,42.9z"/>
<path class="st2" d="M58.7,44.1c-0.2,0-0.5,0-0.7,0.2l-5.3,3.4c-0.4,0.3-0.6,0.8-0.4,1.2c0.1,0.1,0.1,0.2,0.2,0.2l13.2,9.1
	l17.8-11.4L58.7,44.1z"/>
<path class="st3" d="M115.1,42.8L66.5,73.3L37.8,84.8l-14.6,2.9l-1.6-2.7L102.5,35c2.4-1.5,5.1-2.4,7.8-2.7c1.2-0.1,2.3-0.1,3.5,0.1
	c1,0.2,1.9,0.4,2.8,0.9c1,0.5,2.8,0.5,3.4,1.5C119.9,34.8,121.3,39.2,115.1,42.8L115.1,42.8z"/>
<path class="st2" d="M67.2,69.3l-21,33.5c-0.3,0.5-0.1,1,0.3,1.2c0.3,0.1,0.6,0.1,0.9-0.1l5.3-3.4c1-0.7,1.9-1.5,2.7-2.4l40.7-47.9
	L67.2,69.3z"/>
<path class="st2" d="M14.2,68.2c-0.4-0.1-0.8-0.1-1.1,0.2l-4.4,2.8c-0.6,0.4-0.8,1.1-0.5,1.6c0.1,0.1,0.1,0.2,0.2,0.3L20.7,83
	l13-8.1L14.2,68.2z"/>
<path class="st2" d="M24.9,84.8l-6.7,9.3c-0.1,0.1-0.1,0.3,0.1,0.4c0.1,0.1,0.2,0,0.3,0l4.1-2.6c0,0,0.1,0,0.1-0.1l9.7-11.8
	L24.9,84.8z"/>
<path class="st2" d="M112.9,32.9c-1.2-0.2-2.4-0.2-3.6-0.1c-1.2,1.7-1.9,3.5-2.2,5.4c0,0.4,0.3,0.6,0.7,0.6c0.1,0,0.2-0.1,0.4-0.1
	l7.6-4.8C114.9,33.3,113.9,33,112.9,32.9z"/>
<path class="st1" d="M96.3,41.8l5-3.1l4.6,7.9l-5,3.1L96.3,41.8z"/>
<path class="st4" d="M93.2,44.9c-0.6,0.4-0.8,1.1-0.5,1.6l0.5,0.8c0.3,0.5,1.1,0.6,1.7,0.2c0.6-0.4,0.8-1.1,0.5-1.6l-0.5-0.8
	C94.5,44.6,93.8,44.5,93.2,44.9L93.2,44.9z"/>
<path class="st4" d="M88.7,47.7c-0.6,0.4-0.8,1.1-0.5,1.6l0.5,0.8c0.3,0.5,1.1,0.6,1.7,0.2c0.6-0.4,0.8-1.1,0.5-1.6l-0.5-0.8
	C90.1,47.4,89.3,47.3,88.7,47.7L88.7,47.7z"/>
<path class="st4" d="M84.3,50.4c-0.6,0.4-0.8,1.1-0.5,1.6l0.5,0.8c0.3,0.5,1.1,0.6,1.7,0.2c0.6-0.4,0.8-1.1,0.5-1.6l-0.5-0.8
	C85.6,50.2,84.9,50,84.3,50.4L84.3,50.4z"/>
<path class="st4" d="M79.8,53.2c-0.6,0.4-0.8,1.1-0.5,1.6l0.5,0.8c0.3,0.5,1.1,0.6,1.7,0.2c0.6-0.4,0.8-1.1,0.5-1.6l-0.5-0.8
	C81.1,52.9,80.4,52.8,79.8,53.2L79.8,53.2z"/>
<path class="st4" d="M75.3,56c-0.6,0.4-0.8,1.1-0.5,1.6l0.5,0.8c0.3,0.5,1,0.6,1.6,0.3c0.6-0.4,0.8-1.1,0.5-1.6L77,56.2
	C76.7,55.7,75.9,55.6,75.3,56C75.3,56,75.3,56,75.3,56z"/>
<path class="st4" d="M70.9,58.7c-0.6,0.4-0.8,1.1-0.5,1.6l0.5,0.8c0.3,0.5,1,0.6,1.6,0.3c0.6-0.4,0.8-1.1,0.5-1.6L72.5,59
	C72.2,58.5,71.5,58.4,70.9,58.7C70.9,58.7,70.9,58.7,70.9,58.7z"/>
<path class="st4" d="M66.4,61.5c-0.6,0.4-0.8,1.1-0.5,1.6l0.5,0.8c0.3,0.5,1,0.6,1.6,0.3c0.6-0.4,0.8-1.1,0.5-1.6l-0.5-0.8
	C67.7,61.2,67,61.1,66.4,61.5z"/>
<path class="st4" d="M62,64.3c-0.6,0.4-0.8,1.1-0.5,1.6l0.5,0.8c0.3,0.5,1,0.6,1.6,0.3c0.6-0.4,0.8-1.1,0.5-1.6l-0.5-0.8
	C63.3,64,62.6,63.9,62,64.3z"/>
<path class="st4" d="M57.5,67.1c-0.6,0.4-0.8,1.1-0.5,1.6l0.5,0.8c0.3,0.5,1,0.6,1.6,0.3c0.6-0.4,0.8-1.1,0.5-1.6l-0.5-0.8
	C58.8,66.8,58.1,66.7,57.5,67.1z"/>
<path class="st4" d="M53,69.8c-0.6,0.4-0.8,1.1-0.5,1.6l0,0l0.5,0.8c0.3,0.5,1,0.6,1.6,0.3c0.6-0.4,0.8-1.1,0.5-1.6l-0.5-0.8
	C54.4,69.6,53.6,69.5,53,69.8z"/>
<path class="st4" d="M48.6,72.6C48,73,47.7,73.7,48,74.2l0,0l0.5,0.8c0.3,0.5,1,0.6,1.6,0.3c0.6-0.4,0.8-1.1,0.5-1.6l-0.5-0.8
	C49.9,72.3,49.2,72.2,48.6,72.6z"/>
</svg>
